<svg xmlns="http://www.w3.org/2000/svg" xmlns:xlink="http://www.w3.org/1999/xlink" width="104" height="34" viewBox="0 0 104 34">
  <defs>
    <clipPath id="clip-mtg_random_cards_1">
      <rect width="104" height="34"/>
    </clipPath>
  </defs>
  <g id="mtg_random_cards_1" data-name="mtg_random_cards – 1" clip-path="url(#clip-mtg_random_cards_1)">
    <g id="Group_4" data-name="Group 4" transform="translate(-15.974 -10.137)">
      <g id="Group_2" data-name="Group 2" transform="translate(47.195 14.137)">
        <path id="Path_14" data-name="Path 14" d="M2.623-24.616H9.718q.349.975.6,1.644t.387,1l2.9,6.854,3.509-7.272q.289-.627.479-1.17a8.549,8.549,0,0,0,.3-1.045l6.973-.014v2.2H23.087L24.53-7.356H25.9v2.173H16.524V-7.356h1.808l-.775-11.033a54.862,54.862,0,0,0-2.735,6.91,36.81,36.81,0,0,0-1.443,6.3H10.25a41.725,41.725,0,0,0-1.322-6.4,57.36,57.36,0,0,0-2.446-6.805L5.267-7.356h1.9v2.173H1.2V-7.356H2.441l1.7-15.059H2.623Zm34.1,2.4v8.247h.9a3.824,3.824,0,0,0,2.871-1.142,4.118,4.118,0,0,0,1.109-3A3.934,3.934,0,0,0,40.42-21.1a4.4,4.4,0,0,0-3.167-1.121Zm-7.869-2.4h9.48a12.253,12.253,0,0,1,6.9,1.713,5.283,5.283,0,0,1,2.56,4.6A5.2,5.2,0,0,1,46.649-15,6.939,6.939,0,0,1,43.435-12.8a3.934,3.934,0,0,1,.646.62,5.928,5.928,0,0,1,.6.9L46.99-7.356H48.3v2.173H40.868a11.75,11.75,0,0,0-.289-1.177,7.119,7.119,0,0,0-.38-1l-2.172-4.36H36.721v4.36H38.21v2.173H28.851V-7.356h1.519V-22.415H28.851Zm37.394,1.6.987-.738,1.306,1.658-6.593,4.9L60.67-18.6a2.1,2.1,0,0,0,.554-.7,1.96,1.96,0,0,0,.19-.857,2,2,0,0,0-.57-1.442,1.89,1.89,0,0,0-1.42-.592,2.43,2.43,0,0,0-2.127,1.2,5.867,5.867,0,0,0-.79,3.253,9.817,9.817,0,0,0,1.846,6.067,5.541,5.541,0,0,0,4.58,2.459,6.174,6.174,0,0,0,2.59-.536A7.318,7.318,0,0,0,67.765-11.4L73.3-3.626c-.23.332-5.537-3.793-5.537-3.793s-1.282.631-2.514,1.337a10.03,10.03,0,0,1-5.082,1.3,9.386,9.386,0,0,1-6.874-2.64,9.065,9.065,0,0,1-2.681-6.749,10.469,10.469,0,0,1,.706-3.852,10.422,10.422,0,0,1,2.1-3.309,11.407,11.407,0,0,1,3.616-2.7,9.7,9.7,0,0,1,4.163-.947,7.8,7.8,0,0,1,2.841.495A5.979,5.979,0,0,1,66.245-23.014Z" transform="translate(-1.195 24.979)" fill="#e8e9e9"/>
      </g>
      <path id="Path_16" data-name="Path 16" d="M.623-6.869H2.066q.071.263.122.443t.079.27l.59,1.848.714-1.96q.059-.169.1-.315t.06-.282l1.418,0v.593H4.785l.294,4.06h.278v.586H3.45v-.586h.368L3.66-5.19A17.91,17.91,0,0,0,3.1-3.328a12.725,12.725,0,0,0-.294,1.7H2.174A14.509,14.509,0,0,0,1.9-3.356a19,19,0,0,0-.5-1.835L1.16-2.216h.386v.586H.332v-.586H.585l.346-4.06H.623ZM5.85-7.061h.436l.025.192H8.761l.019-.192h.436l.09,1.6H8.887a.975.975,0,0,0-.2-.531.535.535,0,0,0-.425-.175H8.189v3.951h.374v.586H6.5v-.586h.374V-6.167H6.8a.53.53,0,0,0-.42.173.978.978,0,0,0-.195.533H5.76Zm6.633,2.832h-.735v-.563H13.2a1.137,1.137,0,0,0,.238-.024,1.1,1.1,0,0,0,.222-.073l.173.353a.792.792,0,0,0-.124.227.771.771,0,0,0-.04.25v2.43h-.349l-.284-.552a2.256,2.256,0,0,1-.678.494,1.808,1.808,0,0,1-.765.167A1.649,1.649,0,0,1,10.214-2.2a2.871,2.871,0,0,1-.519-1.8A3.854,3.854,0,0,1,9.85-5.1,2.921,2.921,0,0,1,10.3-6.02a2.388,2.388,0,0,1,.774-.7,1.888,1.888,0,0,1,.929-.248,1.52,1.52,0,0,1,.587.116,1.74,1.74,0,0,1,.525.346l.247-.188.26.477L12.3-5.153,12.05-5.57a.426.426,0,0,0,.066-.126.442.442,0,0,0,.023-.141.459.459,0,0,0-.116-.317.372.372,0,0,0-.289-.13.638.638,0,0,0-.564.4,2.286,2.286,0,0,0-.215,1.074,3.376,3.376,0,0,0,.363,1.639,1.049,1.049,0,0,0,.9.663q.087,0,.148-.011a.459.459,0,0,0,.117-.03Zm5.33-1.994V-4H18a.693.693,0,0,0,.584-.308,1.334,1.334,0,0,0,.226-.807,1.261,1.261,0,0,0-.239-.806.779.779,0,0,0-.644-.3Zm-1.6-.646h1.928a2.04,2.04,0,0,1,1.4.462,1.574,1.574,0,0,1,.521,1.239,1.712,1.712,0,0,1-.233.892,1.479,1.479,0,0,1-.654.592.96.96,0,0,1,.131.167,1.707,1.707,0,0,1,.122.242l.47,1.059h.266v.586H18.657q-.025-.169-.059-.317a2.335,2.335,0,0,0-.077-.269l-.442-1.175h-.266v1.175h.3v.586h-1.9v-.586h.309v-4.06h-.309Zm6.2,1.326-.55,1.938h1.082Zm-.229-1.326h1.153l1.329,4.653h.229v.586H22.951v-.586h.368l-.185-.7H21.665l-.195.7h.371v.586H20.59v-.586h.278Zm3.147,0h1.434l1.557,2.753V-6.276h-.309v-.593H29.2v.593h-.3V-1.63h-.766q-.059-.158-.136-.327t-.182-.357l-1.6-2.847v2.944h.368v.586H25.331v-.586h.309v-4.06h-.309Zm6.231.7v3.846H31.7a.73.73,0,0,0,.658-.518,3.66,3.66,0,0,0,.235-1.468,3.205,3.205,0,0,0-.235-1.4.751.751,0,0,0-.7-.464Zm-1.625-.7h1.74a2.171,2.171,0,0,1,1.7.682,2.713,2.713,0,0,1,.612,1.88A3.55,3.55,0,0,1,33.8-3.1a2.461,2.461,0,0,1-.584.914,1.74,1.74,0,0,1-.666.424,3.141,3.141,0,0,1-1,.128H29.937v-.586h.309v-4.06h-.309Zm6.472.578a.512.512,0,0,0-.474.338,2.348,2.348,0,0,0-.162.984,5.324,5.324,0,0,0,.091.96,5.479,5.479,0,0,0,.261.948,2.015,2.015,0,0,0,.357.644A.569.569,0,0,0,36.9-2.2a.509.509,0,0,0,.473-.338,2.391,2.391,0,0,0,.161-.991,5.325,5.325,0,0,0-.091-.96,5.666,5.666,0,0,0-.258-.948,1.984,1.984,0,0,0-.354-.637A.571.571,0,0,0,36.41-6.291Zm.247-.676a1.957,1.957,0,0,1,1.582.77,2.991,2.991,0,0,1,.627,1.953,2.989,2.989,0,0,1-.627,1.955,1.959,1.959,0,0,1-1.582.768,1.964,1.964,0,0,1-1.587-.77,2.986,2.986,0,0,1-.629-1.953A2.986,2.986,0,0,1,35.07-6.2,1.964,1.964,0,0,1,36.657-6.967Zm2.962.1h1.443q.071.263.122.443t.079.27l.59,1.848.714-1.96q.059-.169.1-.315t.06-.282l1.418,0v.593h-.362l.294,4.06h.278v.586H42.446v-.586h.368L42.657-5.19A17.91,17.91,0,0,0,42.1-3.328a12.725,12.725,0,0,0-.294,1.7H41.17A14.512,14.512,0,0,0,40.9-3.356a19,19,0,0,0-.5-1.835l-.247,2.974h.386v.586H39.328v-.586h.253l.346-4.06h-.309Zm10.1.432.2-.2.266.447L48.846-4.867l-.26-.379a.571.571,0,0,0,.113-.19.675.675,0,0,0,.039-.231.644.644,0,0,0-.116-.389.346.346,0,0,0-.289-.16.485.485,0,0,0-.433.325,2,2,0,0,0-.161.877,3.276,3.276,0,0,0,.375,1.636,1.085,1.085,0,0,0,.932.663,1,1,0,0,0,.527-.145A1.6,1.6,0,0,0,50.03-3.3l.328.361a3.156,3.156,0,0,1-.839,1.072,1.666,1.666,0,0,1-1.034.351,1.687,1.687,0,0,1-1.4-.712,2.906,2.906,0,0,1-.545-1.82,3.648,3.648,0,0,1,.144-1.038,3.047,3.047,0,0,1,.428-.892,2.507,2.507,0,0,1,.735-.729,1.584,1.584,0,0,1,.847-.255,1.246,1.246,0,0,1,.578.133A1.258,1.258,0,0,1,49.721-6.437Zm2.5.894-.55,1.938h1.082ZM51.99-6.869h1.153l1.329,4.653H54.7v.586H52.757v-.586h.368l-.185-.7H51.471l-.195.7h.371v.586H50.4v-.586h.278Zm4.748.646V-4h.182a.693.693,0,0,0,.584-.308,1.334,1.334,0,0,0,.226-.807,1.261,1.261,0,0,0-.239-.806.779.779,0,0,0-.644-.3Zm-1.6-.646h1.928a2.04,2.04,0,0,1,1.4.462,1.574,1.574,0,0,1,.521,1.239,1.712,1.712,0,0,1-.233.892,1.479,1.479,0,0,1-.654.592.96.96,0,0,1,.131.167,1.706,1.706,0,0,1,.122.242l.47,1.059h.266v.586H57.582q-.025-.169-.059-.317a2.337,2.337,0,0,0-.077-.269L57-3.391h-.266v1.175h.3v.586h-1.9v-.586h.309v-4.06h-.309Zm6.2.7v3.846h.133a.73.73,0,0,0,.658-.518,3.66,3.66,0,0,0,.235-1.468,3.205,3.205,0,0,0-.235-1.4.751.751,0,0,0-.7-.464Zm-1.625-.7h1.74a2.171,2.171,0,0,1,1.7.682,2.713,2.713,0,0,1,.612,1.88A3.55,3.55,0,0,1,63.579-3.1a2.461,2.461,0,0,1-.584.914,1.739,1.739,0,0,1-.666.424,3.141,3.141,0,0,1-1,.128H59.713v-.586h.309v-4.06h-.309Zm7.5.278.145-.244.368.274-.683,1.307a6.526,6.526,0,0,0-.78-.712.976.976,0,0,0-.511-.235.349.349,0,0,0-.25.094.308.308,0,0,0-.1.233.446.446,0,0,0,.159.332,2.285,2.285,0,0,0,.564.336l.219.1a3.311,3.311,0,0,1,1.054.646,1.421,1.421,0,0,1,.253.445,1.567,1.567,0,0,1,.087.524A2,2,0,0,1,67.217-2.1a1.652,1.652,0,0,1-1.27.58,2.284,2.284,0,0,1-.978-.223,3.158,3.158,0,0,1-.9-.655L64.8-3.692a5.583,5.583,0,0,0,.916.973,1.25,1.25,0,0,0,.734.319.49.49,0,0,0,.351-.124.433.433,0,0,0,.131-.33.345.345,0,0,0-.11-.244,1.487,1.487,0,0,0-.372-.248q-.185-.1-.667-.31a3.8,3.8,0,0,1-.7-.374,1.432,1.432,0,0,1-.442-.518,1.471,1.471,0,0,1-.151-.665,1.772,1.772,0,0,1,.488-1.222,1.487,1.487,0,0,1,1.131-.539,1.561,1.561,0,0,1,.511.094A3.23,3.23,0,0,1,67.217-6.591Z" transform="translate(46.981 44.361)" fill="#e8e9e9"/>
    </g>
    <g id="Group_5" data-name="Group 5" transform="translate(-6 -8)">
      <path id="Path_17" data-name="Path 17" d="M710.3,531.329a38.641,38.641,0,0,1,4.765-6.111c3.436-3.766,6.767-3.582,6.767-3.582l2.33-13.271s-2.913,6.809-6.479,6.181-7.382-9.354-7.382-9.354-4.222,8.771-7.923,9.4-6.771-6.226-6.771-6.226l2.315,13.271s3.192-.184,7.022,3.582A41.918,41.918,0,0,1,710.3,531.329Z" transform="translate(-689.254 -495.696)" fill="#9d260f"/>
      <path id="Path_18" data-name="Path 18" d="M710.409,537.517a48.149,48.149,0,0,1,4.805-7.547c3.465-4.651,6.824-4.424,6.824-4.424l2.756-18.277s-3.344,10.3-6.94,9.522-7.445-12.622-7.445-12.622-4.258,11.9-7.99,12.677-6.938-9.577-6.938-9.577l2.444,18.277s3.219-.227,7.082,4.424A50.586,50.586,0,0,1,710.409,537.517Z" transform="translate(-689.48 -496.169)" fill="#c8371b"/>
    </g>
  </g>
</svg>
