<?xml version="1.0" encoding="utf-8"?>
<!-- Generator: Adobe Illustrator 18.1.1, SVG Export Plug-In . SVG Version: 6.00 Build 0)  -->
<svg version="1.1" id="Layer_1" xmlns="http://www.w3.org/2000/svg" xmlns:xlink="http://www.w3.org/1999/xlink" x="0px" y="0px"
	 width="27px" height="35px" viewBox="0 0 27 35" enable-background="new 0 0 27 35" xml:space="preserve">
<g>
	<path fill="#FFFFFF" d="M23.6,3.4L11.7,0.2C9.3-0.5,6.8,1,6.1,3.4l-6,22.5c-0.7,2.5,0.8,5,3.3,5.7l11.8,3.2c2.5,0.7,5-0.8,5.6-3.3
		l6-22.5C27.5,6.6,26,4,23.6,3.4z M5.4,14.1c1.3-3.1,4.5-5.4,8.2-5.4c2.4,0,4.6,1,6.2,2.5l0.6-0.9c0.2-0.2,0.4-0.3,0.7-0.2
		c0.3,0.1,0.4,0.3,0.4,0.6l0,4.7c0,0.2-0.1,0.4-0.3,0.5c-0.2,0.1-0.4,0.1-0.6,0l-4.4-1.9c-0.2-0.1-0.4-0.4-0.4-0.6
		c0-0.3,0.2-0.5,0.5-0.5l0.8-0.1c-1-0.8-2.3-1.2-3.6-1.2c-2.5,0-4.6,1.5-5.5,3.6c-0.2,0.5-0.7,0.9-1.3,0.9c-0.5,0-0.9-0.2-1.2-0.6
		C5.2,15,5.2,14.5,5.4,14.1z M21.7,20.9c-1.3,3.1-4.5,5.4-8.2,5.4c-2.4,0-4.6-1-6.2-2.5l-0.6,0.9c-0.2,0.2-0.4,0.3-0.7,0.2
		c-0.3-0.1-0.4-0.3-0.4-0.6l0-4.7c0-0.2,0.1-0.4,0.3-0.5c0.2-0.1,0.4-0.1,0.6,0l4.4,1.9c0.2,0.1,0.4,0.4,0.4,0.6
		c0,0.3-0.2,0.5-0.5,0.5l-0.8,0.1c1,0.8,2.3,1.2,3.6,1.2c2.5,0,4.6-1.5,5.5-3.6c0.2-0.5,0.7-0.9,1.3-0.9c0.5,0,0.9,0.2,1.2,0.6
		C21.8,20,21.9,20.5,21.7,20.9z"/>
</g>
</svg>
